# AST/ASF file generated using VICON BodyLanguage
# -----------------------------------------------
:version 1.10
:name VICON
:units
  mass 1.0
  length 0.45
  angle deg
:documentation
   .ast/.asf automatically generated from VICON data using
   VICON BodyBuilder and BodyLanguage model FoxedUp or BRILLIANT.MOD
:root
   order TX TY TZ RX RY RZ
   axis XYZ
   position 0 0 0  
   orientation 0 -0 0 
:bonedata
  begin
     id 1 
     name lhipjoint
     direction 0.432694 -0.693742 0.575759 
     length 2.19277 
     axis 0 -0 0  XYZ
  end
  begin
     id 2 
     name lfemur
     direction 0.34202 -0.939693 0  
     length 6.69022  
     axis 0 -0 20  XYZ
    dof rx ry rz
    limits (-160.0 20.0)
           (-70.0 70.0)
           (-60.0 70.0)
  end
  begin
     id 3 
     name ltibia
     direction 0.34202 -0.939693 0   
     length 6.50337   
     axis 0 -0 20   XYZ
    dof rx
    limits (-10.0 170.0)
  end
  begin
     id 4 
     name lfoot
     direction 0.158999 -0.435969 0.885805   
     length 2.70564   
     axis -90 -1.13533e-015 20   XYZ
    dof rx rz
    limits (-45.0 90.0)
           (-70.0 20.0)
  end
  begin
     id 5 
     name ltoes
     direction -0.00592919 0.00964381 0.999936   
     length 1.29929   
     axis -90 -1.13533e-015 20   XYZ
    dof rx
    limits (-90.0 20.0)
  end
  begin
     id 6 
     name rhipjoint
     direction -0.414359 -0.700339 0.581234   
     length 2.17212  
     axis 0 -0 0  XYZ 
  end
  begin
     id 7 
     name rfemur
     direction -0.34202 -0.939693 0   
     length 7.17659   
     axis 0 -0 -20   XYZ
    dof rx ry rz
    limits (-160.0 20.0)
           (-70.0 70.0)
           (-70.0 60.0)
  end
  begin
     id 8 
     name rtibia
     direction -0.34202 -0.939693 0   
     length 6.36669   
     axis 0 -0 -20   XYZ
    dof rx
    limits (-10.0 170.0)
 end
 begin
     id 9 
     name rfoot
     direction -0.137064 -0.37658 0.916188   
     length 2.22351  
     axis -90 1.13533e-015 -20   XYZ
    dof rx rz
    limits (-45.0 90.0)
           (-20.0 70.0)
  end
  begin
     id 10 
     name rtoes
     direction -0.000784077 -0.00289101 0.999996   
     length 1.09522   
     axis -90 1.13533e-015 -20   XYZ
    dof rx
    limits (-90.0 20.0)
  end
  begin
     id 11 
     name lowerback
     direction -0.0176242 0.984912 -0.172157   
     length 1.65301   
     axis 0 -0 0   XYZ
    dof rx ry rz
    limits (-20.0 45.0)
           (-30.0 30.0)
           (-30.0 30.0)
  end
  begin
     id 12 
     name upperback
     direction -0.00218128 0.998776 -0.0494072   
     length 1.67776   
     axis 0 -0 0   XYZ
    dof rx ry rz
    limits (-20.0 45.0)
           (-30.0 30.0)
           (-30.0 30.0)
  end
  begin
     id 13 
     name thorax
     direction 0.00544186 0.999658 0.0255711   
     length 1.72293   
     axis 0 -0 0   XYZ
    dof rx ry rz
    limits (-20.0 45.0)
           (-30.0 30.0)
           (-30.0 30.0)
  end
  begin
     id 14 
     name lowerneck
     direction -0.105325 0.983841 0.144785   
     length 2.14226   
     axis 0 -0 0   XYZ
    dof rx ry rz
    limits (-20.0 45.0)
           (-30.0 30.0)
           (-30.0 30.0)
  end
  begin
     id 15 
     name upperneck
     direction 0.0547957 0.988053 -0.144041   
     length 2.17508   
     axis 0 -0 0   XYZ
    dof rx ry rz
    limits (-20.0 45.0)
           (-30.0 30.0)
           (-30.0 30.0)
  end
  begin
     id 16
     name head
     direction 0.0247488 0.997534 -0.0656813  
     length 2.20048  
     axis 0 -0 0   XYZ
    dof rx ry rz
    limits (-20.0 45.0)
           (-30.0 30.0)
           (-30.0 30.0)
  end
  begin
     id 17 
     name lclavicle
     direction 0.820559 0.567247 -0.0701026  
     length 4.09615  
     axis 0 -0 0   XYZ
    dof ry rz
    limits (-20.0 10.0)
           (0.0 20.0)
  end
  begin
     id 18 
     name lhumerus
     direction 0.999977 -0.0067566 -9.96392e-005   
     length 4.59333   
     axis -180 -30 -90   XYZ
    dof rx ry rz
    limits (-60.0 90.0)
           (-90.0 90.0)
           (-90.0 90.0)
  end
  begin
     id 19
     name lradius
     direction 1 -4.48982e-011 -2.53425e-027   
     length 2.81151   
     axis -180 -30 -90   XYZ
    dof rx
    limits (-10.0 170.0)
  end
  begin
     id 20
     name lwrist
     direction 1 -4.48939e-011 -7.39254e-028   
     length 1.40576   
     axis 2.56395e-016 90 90   XYZ
    dof ry
    limits (-180.0 0.0)
 end
  begin
     id 21 
     name lhand
     direction 1 -4.48939e-011 -1.47851e-027   
     length 0.895651   
     axis 9.43423e-016 90 90   XYZ
    dof rx rz
    limits (-90.0 90.0)
           (-45.0 45.0)
  end
  begin
     id 22 
     name lfingers
     direction 1 -4.48978e-011 -2.95702e-027   
     length 0.722097   
     axis 1.88685e-015 90 90   XYZ
    dof rx
    limits (0.0 90.0)
  end
  begin
     id 23
     name lthumb
     direction 0.707107 -6.34931e-011 0.707107   
     length 1.03679   
     axis -90 45 -9.86935e-015   XYZ
    dof rx rz
    limits (-45.0 45.0)
           (-45.0 45.0)
  end
  begin
     id 24 
     name rclavicle
     direction -0.831414 0.553102 -0.0531864   
     length 4.24872  
     axis 0 -0 0   XYZ 
    dof ry rz
    limits (-10.0 20.0)
           (-20.0 0.0)
  end
  begin
     id 25 
     name rhumerus
     direction -0.999916 -0.000939607 0.0129331  
     length 4.74834   
     axis -180 30 90   XYZ
    dof rx ry rz
    limits (-90.0 60.0)
           (-90.0 90.0)
           (-90.0 90.0)
  end
  begin
     id 26 
     name rradius
     direction -1 -4.48956e-011 -1.31752e-027   
     length 2.79907   
     axis -180 30 90   XYZ
    dof rx
    limits (-10.0 170.0)
  end
  begin
     id 27 
     name rwrist
     direction -1 -4.4897e-011 -7.39254e-028   
     length 1.39954   
     axis 2.56395e-016 -90 -90   XYZ
    dof ry
    limits (-180.0 0.0)
  end
  begin
     id 28
     name rhand
     direction -0.999997 -0.00250697 0.000800838   
     length 0.953304   
     axis 9.43423e-016 -90 -90   XYZ
    dof rx rz
    limits (-90.0 90.0)
           (-45.0 45.0)
  end
  begin
     id 29
     name rfingers
     direction -1 -4.48954e-011 -2.95702e-027   
     length 0.763342   
     axis 1.88685e-015 -90 -90   XYZ
    dof rx
    limits (0.0 90.0)
  end
  begin
     id 30
     name rthumb
     direction -0.709701 -0.00217037 0.7045   
     length 1.10115   
     axis -90 -45 9.86935e-015   XYZ
    dof rx rz
    limits (-45.0 45.0)
           (-45.0 45.0)
  end
:hierarchy
  begin
    root lhipjoint rhipjoint lowerback
    lhipjoint lfemur
    lfemur ltibia
    ltibia lfoot
    lfoot ltoes
    rhipjoint rfemur
    rfemur rtibia
    rtibia rfoot
    rfoot rtoes
    lowerback upperback
    upperback thorax
    thorax lowerneck lclavicle rclavicle
    lowerneck upperneck
    upperneck head
    lclavicle lhumerus
    lhumerus lradius
    lradius lwrist
    lwrist lhand lthumb
    lhand lfingers
    rclavicle rhumerus
    rhumerus rradius
    rradius rwrist
    rwrist rhand rthumb
    rhand rfingers
  end

#!OML:ASF G:\ViconDB\ViconDB\414\test\team2\shane.ASF
:FULLY-SPECIFIED
:DEGREES
114
root 2.50214 15.4027 -21.9508 83.7768 85.7879 -60.1956
lowerback 7.10908 0.347276 -3.64456
upperback -1.57256 0.096251 -0.603911
thorax -5.63975 0.159563 1.40718
lowerneck -22.7138 -5.95032 -9.35711
upperneck 24.3729 -5.93592 4.50176
head 12.2659 -2.86795 2.24326
rclavicle 8.87574e-014 2.70347e-014
rhumerus 61.377 -14.0365 -46.6829
rradius 37.5228
rwrist 22.8631
rhand -53.7593 -56.825
rfingers 7.12502
rthumb -26.1929 -85.0378
lclavicle 8.87574e-014 2.70347e-014
lhumerus 60.8234 6.46291 7.91167
lradius 37.5791
lwrist -16.7376
lhand -71.3592 223.096
lfingers 7.12502
lthumb -42.8819 198.808
rfemur 23.4953 -10.8944 -7.69719
rtibia 48.8825
rfoot -2.51508 -8.52917
rtoes -7.9104
lfemur -18.9373 2.02802 41.5228
ltibia 73.4152
lfoot -8.43671 -10.2181
ltoes -4.69246
115
root 2.56891 15.4163 -21.7303 84.0585 88.0671 -60.5775
lowerback 6.36362 0.192084 -2.99067
upperback -1.70246 0.00991372 0.0846175
thorax -5.34516 0.104085 1.76714
lowerneck -22.179 -5.92489 -8.81323
upperneck 23.5751 -5.8841 3.64759
head 11.7975 -2.90463 1.84578
rclavicle -1.33335e-013 -2.60408e-014
rhumerus 59.9318 -13.3777 -44.6217
rradius 38.5743
rwrist 20.9231
rhand -54.1271 -58.6922
rfingers 7.12502
rthumb -26.545 -86.8522
lclavicle -1.33335e-013 -2.60408e-014
lhumerus 60.4728 6.26162 6.96871
lradius 37.5272
lwrist -16.7046
lhand -71.0278 220.584
lfingers 7.12502
lthumb -42.5718 196.189
rfemur 23.6327 -11.0483 -8.23708
rtibia 47.7181
rfoot -2.58957 -8.6003
rtoes -8.21066
lfemur -16.4414 0.573263 41.2124
ltibia 73.4499
lfoot -6.31489 -10.9791
ltoes -4.69246
116
root 2.63656 15.4472 -21.5163 59.2656 90.3875 -86.0281
lowerback 5.82407 -0.0348826 -2.22152
upperback -1.87019 -0.188866 0.659873
thorax -5.20195 -0.00987873 1.95258
lowerneck -22.138 -5.8667 -8.85168
upperneck 23.2928 -5.87601 3.90624
head 11.6899 -2.87325 1.94945
rclavicle -1.36292e-013 -4.72362e-014
rhumerus 58.7478 -13.0128 -43.8998
rradius 39.398
rwrist 20.2897
rhand -54.1355 -59.9182
rfingers 7.12502
rthumb -26.553 -88.077
lclavicle -1.36292e-013 -4.72362e-014
lhumerus 60.1597 6.16337 6.11417
lradius 37.7342
lwrist -16.647
lhand -70.8304 218.154
lfingers 7.12502
lthumb -42.387 193.695
rfemur 23.76 -11.1884 -8.71024
rtibia 46.6036
rfoot -2.7235 -8.50891
rtoes -9.138
lfemur -14.2449 -0.850002 40.8001
ltibia 73.5021
lfoot -4.71809 -11.6135
ltoes -6.13743
117
root 2.71152 15.4877 -21.3091 77.8568 92.7571 -67.9916
lowerback 5.50119 -0.225908 -1.27591
upperback -2.05838 -0.341949 1.17414
thorax -5.20832 -0.106556 1.96942
lowerneck -22.4708 -5.81974 -9.00664
upperneck 23.6945 -5.87312 4.39471
head 11.9303 -2.82314 2.15511
rclavicle 7.42958e-014 1.43622e-014
rhumerus 57.5764 -12.7367 -43.6529
rradius 40.1659
rwrist 19.7712
rhand -54.1273 -60.1592
rfingers 7.12502
rthumb -26.5452 -88.3192
lclavicle 7.42958e-014 1.43622e-014
lhumerus 60.2498 6.16022 5.57837
lradius 37.8018
lwrist -16.86
lhand -70.7018 217.576
lfingers 7.12502
lthumb -42.2666 193.076
rfemur 23.8066 -11.4218 -9.20317
rtibia 45.5009
rfoot -2.73322 -8.25903
rtoes -9.36
lfemur -12.0079 -2.50031 40.3562
ltibia 73.5554
lfoot -2.41115 -11.7048
ltoes -5.33123
118
root 2.78068 15.5252 -21.0992 79.362 95.0617 -67.1486
lowerback 5.21696 -0.360662 -0.4301
upperback -2.30223 -0.429573 1.71551
thorax -5.29973 -0.166616 2.06453
lowerneck -22.6434 -5.95481 -8.85268
upperneck 23.7892 -6.14857 4.5633
head 12.0214 -2.90895 2.14236
rclavicle -3.34952e-014 1.45113e-014
rhumerus 56.7323 -12.5714 -43.1496
rradius 40.5593
rwrist 19.0433
rhand -54.1399 -60.6531
rfingers 7.12502
rthumb -26.5572 -88.8113
lclavicle -3.34952e-014 1.45113e-014
lhumerus 60.3526 6.22701 5.07434
lradius 37.8113
lwrist -16.8103
lhand -70.6145 217.855
lfingers 7.12502
lthumb -42.1848 193.327
rfemur 23.6572 -11.6078 -9.63198
rtibia 44.435
rfoot -2.90022 -8.23732
rtoes -9.10418
lfemur -9.97423 -3.8742 39.7332
ltibia 73.5554
lfoot -0.560294 -11.9085
ltoes -6.18187
